<svg id="Group_19" data-name="Group 19" xmlns="http://www.w3.org/2000/svg" width="21.944" height="23.169" viewBox="0 0 21.944 23.169">
  <path id="Path_2743" data-name="Path 2743" d="M424.838,767.124c-1.313.75-2.249,1.206-2.994,1.087a5.345,5.345,0,0,0,2.946-2.813c.056-.131-.344-.316-.474-.372a.258.258,0,0,0-.338.136,4.783,4.783,0,0,1-1.993,2.4,10.9,10.9,0,0,0,1.211-4.763H411.4a9.75,9.75,0,0,0,1.941,5.809h7.909l.005-.006a4.13,4.13,0,0,0,1.183.169,5.6,5.6,0,0,0,2.787-.813c.124-.07.032-.617-.039-.741a.258.258,0,0,0-.352-.1" transform="translate(-406.327 -762.803)" fill="#691c34"/>
  <path id="Path_2744" data-name="Path 2744" d="M410.477,782.868h-8.093a10.974,10.974,0,0,0-6.925,10.2c0,6.059,4.912,6.583,10.972,6.583s10.972-.524,10.972-6.583a10.973,10.973,0,0,0-6.926-10.2m-1.043,9.945a2.5,2.5,0,0,1-2.258,2.223l.007,1.4h-1.354v-1.292a6.234,6.234,0,0,1-2.414-.622l.511-1.583a5.458,5.458,0,0,0,1.32.476c.709.146,1.937.107,2.087-.559.146-.646-.274-.9-1.149-1.15s-2.4-.966-2.542-2.146c-.151-1.285.431-2.278,2.167-2.646v-1.355h1.355v1.188a5.907,5.907,0,0,1,1.91.441l-.327,1.455a7.282,7.282,0,0,0-2.208-.375c-.9.062-.956.972-.32,1.379a19.381,19.381,0,0,0,2.216,1.018,2.089,2.089,0,0,1,1,2.147" transform="translate(-395.459 -776.48)" fill="#691c34"/>
</svg>
