<svg xmlns="http://www.w3.org/2000/svg" width="21.004" height="18.67" viewBox="0 0 21.004 18.67">
  <path id="Icon_awesome-file-signature" data-name="Icon awesome-file-signature" d="M7.956,15.466a.4.4,0,0,0-.371-.238.4.4,0,0,0-.365.226l-.28.559a.583.583,0,0,1-1.075-.076L5.251,14.1,4.864,15.26a1.574,1.574,0,0,1-1.5,1.077H2.917a.583.583,0,0,1,0-1.167h.452a.409.409,0,0,0,.388-.279L4.42,12.9a.876.876,0,0,1,1.661,0l.506,1.518a1.636,1.636,0,0,1,2.407.516.414.414,0,0,0,.341.228V12.166L14,7.532v-1.7H9.043a.878.878,0,0,1-.875-.875V0H.875A.873.873,0,0,0,0,.875V17.8a.873.873,0,0,0,.875.875H13.127A.873.873,0,0,0,14,17.8V16.336l-4.668,0A1.566,1.566,0,0,1,7.956,15.466ZM14,4.445a.872.872,0,0,0-.255-.616L10.177.255A.875.875,0,0,0,9.558,0H9.335V4.668H14Zm-3.5,8.207V15.17h2.516l5.9-5.936L16.438,6.758ZM20.732,6.1,19.57,4.94a.929.929,0,0,0-1.313,0l-.994.994,2.475,2.475.994-.994A.928.928,0,0,0,20.732,6.1Z" fill="#691c34"/>
</svg>
