<svg id="Group_18" data-name="Group 18" xmlns="http://www.w3.org/2000/svg" width="30.136" height="19.002" viewBox="0 0 30.136 19.002">
  <path id="Path_2737" data-name="Path 2737" d="M263.28,923.437a4.888,4.888,0,1,0,4.153,7.454,6.324,6.324,0,0,1-.52-5.824,4.874,4.874,0,0,0-3.633-1.63" transform="translate(-256.669 -921.9)" fill="#691c34"/>
  <path id="Path_2738" data-name="Path 2738" d="M263.117,950.7c-.06.047-.133.1-.214.159a3.355,3.355,0,0,1-6.293-.03c-.152-.109-.269-.2-.337-.258-.025-.022-.051-.042-.075-.064l-.042.036c-3.043,2.631-3,7.237-3,7.432l0,.163H260.9a12.263,12.263,0,0,1,2.778-7.309,3.38,3.38,0,0,0-.37-.3c-.042.039-.086.076-.129.114l-.065.054" transform="translate(-253.157 -940.063)" fill="#691c34"/>
  <path id="Path_2739" data-name="Path 2739" d="M290.243,950.005c-.049.044-.1.088-.149.13l-.074.062a6.756,6.756,0,0,1-3.028,1.325c-.144.02-.286.043-.433.052-.124.007-.248.013-.374.013a5.989,5.989,0,0,1-1.327-.151,7.209,7.209,0,0,1-2.675-1.386c-.028-.025-.058-.047-.085-.073l-.048.042c-3.484,3.013-3.436,8.285-3.432,8.508l0,.187h14.91l-.008-.2c-.247-6.092-2.683-8.106-3.281-8.51m-2.073,4.126-2.095-1.068-2.095,1.068v-2.594l2.095,1.12,2.095-1.12Z" transform="translate(-270.244 -939.711)" fill="#691c34"/>
  <path id="Path_2740" data-name="Path 2740" d="M284.686,924.367a5.608,5.608,0,0,0,5.6,5.6h0a5.6,5.6,0,1,0-5.6-5.6" transform="translate(-274.315 -918.765)" fill="#691c34"/>
  <path id="Path_2741" data-name="Path 2741" d="M324.294,959.325l6.284,0,0-.147c0-.175-.058-4.085-2.792-6.451l-.037-.032q-.132.123-.274.235l-1.944,3.785-.345-2.22.554-.9a4.7,4.7,0,0,1-1.1.131c-.1,0-.2,0-.294-.011a4.6,4.6,0,0,1-.525-.062c-.067-.012-.134-.025-.2-.04l.545.877-.363,2.114a15.255,15.255,0,0,1,.488,2.715" transform="translate(-300.445 -941.535)" fill="#691c34"/>
  <path id="Path_2742" data-name="Path 2742" d="M319.725,936.1a4.392,4.392,0,1,0-2.629-7.908,5.887,5.887,0,0,1-1.081,5.861,4.392,4.392,0,0,0,3.71,2.047" transform="translate(-295.339 -924.5)" fill="#691c34"/>
</svg>
