<svg id="Group_17" data-name="Group 17" xmlns="http://www.w3.org/2000/svg" xmlns:xlink="http://www.w3.org/1999/xlink" width="18.143" height="22.786" viewBox="0 0 18.143 22.786">
  <defs>
    <clipPath id="clip-path">
      <rect id="Rectangle_2982" data-name="Rectangle 2982" width="18.143" height="22.786" transform="translate(0 0)" fill="#691c34"/>
    </clipPath>
  </defs>
  <g id="Group_6918" data-name="Group 6918" transform="translate(0 0)" clip-path="url(#clip-path)">
    <path id="Path_2686" data-name="Path 2686" d="M14.141,37.782c-.059.054-.12.107-.181.159s-.124.106-.188.157c-.131.1-.266.206-.4.3L10.51,44.272,9.94,40.891l.845-1.359c-.1.023-.206.043-.311.062a7.2,7.2,0,0,1-.814.1c-.15.01-.3.016-.455.016a7.3,7.3,0,0,1-1.7-.2l.858,1.388-.536,3.441L4.658,38.113c-.146-.116-.287-.238-.424-.365l-.057.051C-.062,41.464,0,47.878,0,48.149l0,.227H18.143l-.009-.241c-.3-7.411-3.265-9.861-3.993-10.353" transform="translate(0 -25.591)" fill="#691c34"/>
    <path id="Path_2687" data-name="Path 2687" d="M14.253,0a6.808,6.808,0,1,0,6.809,6.808A6.816,6.816,0,0,0,14.253,0" transform="translate(-5.047 0)" fill="#691c34"/>
  </g>
</svg>
