<svg xmlns="http://www.w3.org/2000/svg" xmlns:xlink="http://www.w3.org/1999/xlink" viewBox="0 0 47.33 55.73"><defs><style>.cls-1{fill:none;}.cls-2{clip-path:url(#clip-path);}.cls-3{fill:#0c5adb;}.cls-4{fill:#c3dafc;}</style><clipPath id="clip-path" transform="translate(-6.33 -2.27)"><rect class="cls-1" width="60" height="60"/></clipPath></defs><g id="Layer_2" data-name="Layer 2"><g id="Layer_1-2" data-name="Layer 1"><g class="cls-2"><path class="cls-3" d="M28.71,51.19A17.57,17.57,0,0,0,23,48.54,23.64,23.64,0,0,1,27.73,2.42a16,16,0,0,1,4.89.07c-.09,0-.14,0-.15,0s.09.08.27.13a6.39,6.39,0,0,1,1.88,1.88c.11.17,2,3.05.58,5.89A5.81,5.81,0,0,1,30,13.69l-1.54.19a12.2,12.2,0,0,0-.07,24.19,17,17,0,0,0,5.14-.29l.08,0s.06,0,.06.05a.82.82,0,0,1,0,.19,1.73,1.73,0,0,1-.23.43c-.33.38-.57.84-.93,1.2a14.11,14.11,0,0,0-2,3.19,16.92,16.92,0,0,0-1.33,3.23A14.24,14.24,0,0,0,28.71,51.19Z" transform="translate(-6.33 -2.27)"/><path class="cls-4" d="M33.58,37.76h0s2.15-1,2.32-1.1a12.15,12.15,0,0,0,4.86-16.54C38.42,15.93,34.69,14,30,13.69a5.81,5.81,0,0,0,5.23-3.26,6,6,0,0,0-.58-5.89A6.29,6.29,0,0,0,32.07,2.4l.55.08A23.61,23.61,0,0,1,53.53,23.32a25.11,25.11,0,0,1-8,21.38,69,69,0,0,1-8.25,6.38,49.74,49.74,0,0,0-8.11,6.8c-.05.11-.15.17-.24.08a.35.35,0,0,1,0-.43v-.3l-.17-6a14.83,14.83,0,0,1,.44-5.14C30.35,41.66,33.7,37.84,33.58,37.76Z" transform="translate(-6.33 -2.27)"/></g></g></g></svg>